<svg height="480pt" viewBox="0 0 480 480" width="480pt" xmlns="http://www.w3.org/2000/svg"><path fill="#3e3843" d="m144 184v-48c-.027344-22.082031-17.917969-39.972656-40-40h-8v-12.449219c9.867188-5.671875 15.964844-16.171875 16-27.550781v-24c0-17.671875-14.328125-32-32-32h-16c-17.671875 0-32 14.328125-32 32v24c.035156 11.378906 6.132812 21.878906 16 27.550781v12.449219h-8c-22.082031.027344-39.9726562 17.917969-40 40v48c0 13.253906 10.746094 24 24 24h25.472656c3.339844 9.585938 12.378906 16.007812 22.527344 16.007812s19.1875-6.421874 22.527344-16.007812h25.472656c13.253906 0 24-10.746094 24-24zm-51.097656-72-10.671875 32h-20.460938l-10.671875-32zm-12.902344-40h-16c-8.835938 0-16-7.164062-16-16v-8h16c1.242188 0 2.464844-.285156 3.574219-.839844l10.824219-5.425781 3.921874 3.921875c1.503907 1.507812 3.550782 2.351562 5.679688 2.34375h8v8c0 8.835938-7.164062 16-16 16zm-16-56h16c8.835938 0 16 7.164062 16 16h-4.6875l-5.65625-5.65625c-2.433594-2.433594-6.152344-3.042969-9.230469-1.503906l-14.3125 7.160156h-14.113281c0-8.835938 7.164062-16 16-16zm0 72h16v8h-16zm8 120c-4.417969 0-8-3.582031-8-8s3.582031-8 8-8 8 3.582031 8 8-3.582031 8-8 8zm56-24c0 4.417969-3.582031 8-8 8h-25.472656c-3.339844-9.585938-12.378906-16.007812-22.527344-16.007812s-19.1875 6.421874-22.527344 16.007812h-25.472656c-4.417969 0-8-3.582031-8-8v-48c.027344-11.101562 7.667969-20.738281 18.472656-23.296875l13.941406 41.824219c1.089844 3.265625 4.144532 5.46875 7.585938 5.472656h32c3.441406-.003906 6.496094-2.207031 7.585938-5.472656l13.941406-41.824219c10.804687 2.558594 18.445312 12.195313 18.472656 23.296875zm0 0"/><path fill="#3e3843" d="m440 96h-8v-12.449219c9.867188-5.671875 15.964844-16.171875 16-27.550781v-24c0-17.671875-14.328125-32-32-32h-16c-17.671875 0-32 14.328125-32 32v24c.035156 11.378906 6.132812 21.878906 16 27.550781v12.449219h-8c-22.082031.027344-39.972656 17.917969-40 40v48c0 13.253906 10.746094 24 24 24h25.472656c3.339844 9.585938 12.378906 16.007812 22.527344 16.007812s19.1875-6.421874 22.527344-16.007812h25.472656c13.253906 0 24-10.746094 24-24v-48c-.027344-22.082031-17.917969-39.972656-40-40zm-11.097656 16-10.671875 32h-20.460938l-10.671875-32zm-12.902344-40h-16c-8.835938 0-16-7.164062-16-16v-8h16c1.242188 0 2.464844-.285156 3.574219-.839844l10.824219-5.425781 3.921874 3.921875c1.503907 1.507812 3.550782 2.351562 5.679688 2.34375h8v8c0 8.835938-7.164062 16-16 16zm-16-56h16c8.835938 0 16 7.164062 16 16h-4.6875l-5.65625-5.65625c-2.433594-2.433594-6.152344-3.042969-9.230469-1.503906l-14.3125 7.160156h-14.113281c0-8.835938 7.164062-16 16-16zm0 72h16v8h-16zm8 120c-4.417969 0-8-3.582031-8-8s3.582031-8 8-8 8 3.582031 8 8-3.582031 8-8 8zm56-24c0 4.417969-3.582031 8-8 8h-25.472656c-3.339844-9.585938-12.378906-16.007812-22.527344-16.007812s-19.1875 6.421874-22.527344 16.007812h-25.472656c-4.417969 0-8-3.582031-8-8v-48c.027344-11.101562 7.667969-20.738281 18.472656-23.296875l13.941406 41.824219c1.089844 3.265625 4.144532 5.46875 7.585938 5.472656h32c3.441406-.003906 6.496094-2.207031 7.585938-5.472656l13.941406-41.824219c10.804687 2.558594 18.445312 12.195313 18.472656 23.296875zm0 0"/><path fill="#3e3843" d="m232 150.527344v57.472656h16v-57.472656c6.777344-2.417969 12.109375-7.75 14.527344-14.527344h57.472656v-16h-57.472656c-3.339844-9.585938-12.378906-16.007812-22.527344-16.007812s-19.1875 6.421874-22.527344 16.007812h-57.472656v16h57.472656c2.417969 6.777344 7.75 12.109375 14.527344 14.527344zm8-30.527344c4.417969 0 8 3.582031 8 8s-3.582031 8-8 8-8-3.582031-8-8 3.582031-8 8-8zm0 0"/><path fill="#3e3843" d="m333.839844 392.800781c-6.699219-24.179687-28.75-40.890625-53.839844-40.800781h-16v-19.390625c14.558594-6.355469 23.980469-20.722656 24-36.609375v-32c-.027344-22.082031-17.917969-39.972656-40-40h-16c-22.082031.027344-39.972656 17.917969-40 40v32c.019531 15.886719 9.441406 30.253906 24 36.609375v19.390625h-16c-25.089844-.089844-47.140625 16.621094-53.839844 40.800781-10.257812 2.53125-17.636718 11.503907-18.136718 22.058594-.496094 10.554687 6 20.183594 15.976562 23.667969v17.472656c0 13.253906 10.746094 24 24 24h144c13.253906 0 24-10.746094 24-24v-17.472656c9.976562-3.484375 16.472656-13.113282 15.976562-23.667969-.5-10.554687-7.878906-19.527344-18.136718-22.058594zm-63.601563-24.800781-12.796875 64h-34.890625l-12.796875-64zm-38.238281-128h16c13.253906 0 24 10.746094 24 24h-12.6875l-5.65625-5.65625c-2.140625-2.140625-5.308594-2.890625-8.183594-1.9375l-22.769531 7.59375h-14.703125c0-13.253906 10.746094-24 24-24zm-24 56v-16h16c.859375 0 1.710938-.136719 2.527344-.40625l19.304687-6.402344 4.511719 4.503906c1.507812 1.488282 3.539062 2.316407 5.65625 2.304688h16v16c0 13.253906-10.746094 24-24 24h-16c-13.253906 0-24-10.746094-24-24zm24 40h16v16h-16zm-80 72c4.417969 0 8 3.582031 8 8s-3.582031 8-8 8-8-3.582031-8-8 3.582031-8 8-8zm160 56h-144c-4.417969 0-8-3.582031-8-8v-17.472656c9.136719-3.183594 15.449219-11.570313 15.972656-21.230469.527344-9.664063-4.835937-18.683594-13.574218-22.839844 4.871093-13.695312 16.84375-23.628906 31.203124-25.882812l14.558594 73.027343c.761719 3.722657 4.039063 6.398438 7.839844 6.398438h48c3.800781 0 7.078125-2.675781 7.839844-6.398438l14.601562-72.992187c14.355469 2.25 26.332032 12.183594 31.199219 25.878906-8.738281 4.15625-14.101563 13.179688-13.574219 22.839844.527344 9.664063 6.835938 18.050781 15.972656 21.230469v17.441406c0 2.128906-.847656 4.167969-2.355468 5.671875-1.511719 1.5-3.554688 2.339844-5.683594 2.328125zm16-40c-4.417969 0-8-3.582031-8-8s3.582031-8 8-8 8 3.582031 8 8-3.582031 8-8 8zm0 0"/><path fill="#3e3843" d="m80 240h-16v176c0 4.417969 3.582031 8 8 8h40v-16h-32zm0 0"/><path fill="#3e3843" d="m400 408h-32v16h40c4.417969 0 8-3.582031 8-8v-176h-16zm0 0"/></svg>