<svg id="Layer_1" data-name="Layer 1" xmlns="http://www.w3.org/2000/svg" viewBox="0 0 592.49 414.39"><defs><style>.cls-1{fill:#a52929;}.cls-2{fill:none;stroke:#fff;stroke-width:5px;}.cls-3{font-size:40.06px;fill:#fff;font-family:LemonMilk, "Lemon/Milk";}.cls-4{letter-spacing:-0.06em;}.cls-5{font-size:40.32px;}.cls-6{font-size:161.67px;fill:#16bbd2;letter-spacing:-0.22em;}.cls-11,.cls-6{font-family:Douglas-Rutland-Extended, Douglas-Rutland;}.cls-7{letter-spacing:-0.2em;}.cls-8{letter-spacing:-0.08em;}.cls-9{letter-spacing:-0.06em;}.cls-10{letter-spacing:-0.02em;}.cls-11{font-size:32.14px;fill:#eae2c6;letter-spacing:0.04em;}.cls-12{letter-spacing:0.01em;}.cls-13{letter-spacing:0.04em;}.cls-14{letter-spacing:0.03em;}</style></defs><title>waterLogo</title><path class="cls-1" d="M415.68,503.6a2.83,2.83,0,0,1-3.06.18c-2-1.14-4.61-3.95-8.47-8.87-91-115.81-227.94,25.7-269.9-47.94-6.67-11.7-6.36-17.22-4.61-32.17-.3,2.55,8.73-59.88,8.06-69.38-1.23-17.21-1.16-18.48-10.86-32.48-12.83-18.53-10.65-9.53.8-27.14,32.17-49.49-15.8-96.53,8.16-133.12,1.55-2.37,5.46-8.34,10.75-12.59a47.64,47.64,0,0,1,14.3-7.48c50-15.37,166.21,69.46,243.25-28.56,8-10.21,9.26-14.26,10.27-14.3h0c1,0,2.25,4.09,10.27,14.3,77,98,193.23,13.19,243.25,28.56a47.87,47.87,0,0,1,14.3,7.48c5.28,4.25,9.19,10.22,10.74,12.59,24,36.59-24,83.63,8.16,133.12,11.45,17.61,13.63,8.61.8,27.14-9.7,14-9.63,15.27-10.85,32.48-.68,9.5,8.35,71.93,8,69.38,1.75,14.95,2.06,20.47-4.61,32.17-42,73.64-178.88-67.87-269.89,47.94A44.49,44.49,0,0,1,415.68,503.6Z" transform="translate(-118.1 -89.75)"/><path class="cls-2" d="M413.58,487.5C386,452.37,351.45,435.3,308,435.3c-27.35,0-54.62,6.73-78.69,12.66-19.67,4.85-38.25,9.43-53.14,9.43-15.55,0-25-4.89-31.51-16.36-4.86-8.53-4.73-11.06-3.12-24.84h0c.36-2.06.76-5,1.36-9.23.72-5.14,1.82-13.1,2.94-21.82,4.33-33.52,4-38.46,3.83-40.57l-.07-.9c-1.28-18.1-1.81-21.56-12.89-37.56-1.76-2.53-3.22-4.55-4.44-6.21,1.51-1.89,3.34-4.34,5.43-7.56,20-30.82,13.19-61.17,7.69-85.55-4.87-21.61-7.46-35.46.45-47.54,1.21-1.85,4.42-6.75,8.22-9.8a35.94,35.94,0,0,1,10.31-5.37,38.37,38.37,0,0,1,11-1.39c13.11,0,30.62,4.24,49.15,8.74,24.52,5.94,52.32,12.68,80.65,12.68,45,0,80.47-17.22,108.31-52.65l.82-1,.81,1c27.84,35.43,63.27,52.65,108.31,52.65,28.33,0,56.12-6.74,80.64-12.68,18.54-4.5,36-8.74,49.16-8.74a38.37,38.37,0,0,1,11.05,1.39,35.81,35.81,0,0,1,10.31,5.37c3.8,3.05,7,8,8.22,9.8,7.91,12.08,5.32,25.93.45,47.54-5.5,24.38-12.34,54.73,7.69,85.55,2.09,3.22,3.93,5.67,5.43,7.56-1.22,1.66-2.68,3.67-4.44,6.21-11.08,16-11.61,19.46-12.89,37.55l-.06.91c-.15,2.11-.5,7.06,3.82,40.57,1.12,8.72,2.22,16.68,2.94,21.82.6,4.27,1,7.17,1.37,9.23h0C688.74,430,688.87,432.5,684,441c-6.53,11.47-16,16.36-31.51,16.36h0c-14.89,0-33.47-4.58-53.14-9.43C575.29,442,548,435.3,520.67,435.3c-43.43,0-77.95,17.07-105.56,52.2l-.77.95Z" transform="translate(-118.1 -89.75)"/><text class="cls-3" transform="translate(81.93 249.66)">the <tspan class="cls-4" x="84.01" y="0">c</tspan><tspan x="110.49" y="0">onsequences</tspan><tspan class="cls-5" x="404.03" y="0">?</tspan></text><text class="cls-6" transform="translate(54.76 207.21)">W<tspan class="cls-7" x="120.28" y="0">A</tspan><tspan class="cls-8" x="199.99" y="0">T</tspan><tspan class="cls-9" x="288.91" y="0">E</tspan><tspan class="cls-10" x="366.67" y="0">R</tspan></text><text class="cls-11" transform="translate(82.59 297.62)">• Misuse It and L<tspan class="cls-12" x="295.8" y="0">o</tspan><tspan class="cls-13" x="319.71" y="0">se It</tspan><tspan class="cls-14" x="400.93" y="0"> </tspan><tspan class="cls-13" x="413.14" y="0">•</tspan></text></svg>